# xmcd
#
# Track frame offsets:
#	150
#	11502
#	22127
#	35757
#	47750
#	59562
#	75362
#	88622
#	102255
#	117890
#	128867
#	139725
#
# Disc length: 2022
#
# Revision: 2
# Processed by: cddbd v1.5.1PL0 Copyright (c) Steve Scherf et al.
# Submitted via: audiograbber 1.83.01
# Normalized: r1:DSETVAR1
#
DISCID=9d07e40c
DTITLE=Various Artist - MVP Vintage Soul - Vol 2
DYEAR=1998
DGENRE=Soul
TTITLE0=Dinah Washington - What a Diff'rence a Day Makes
TTITLE1=The Impressions - Gipsy Woman
TTITLE2=James Brown - Why Do You Do Me Like You Do
TTITLE3=Little Richard - Try Some of Mine
TTITLE4=Barrett Strong - Money (That's What I Want)
TTITLE5=Jackie Wilson - No Pity (In the Naked City)
TTITLE6=Dionne Warwick - Walk on By
TTITLE7=Etta James - At Last
TTITLE8=Ray Charles - The Night Time is the Right Time
TTITLE9=Fats Domino - Ain't That a Shame
TTITLE10=The Drifters - Ruby Baby
TTITLE11=The Platters - The Great Pretender
EXTD=
EXTT0=
EXTT1=
EXTT2=
EXTT3=
EXTT4=
EXTT5=
EXTT6=
EXTT7=
EXTT8=
EXTT9=
EXTT10=
EXTT11=
PLAYORDER=
